<svg width="32" height="32" viewBox="0 0 32 32" fill="none" xmlns="http://www.w3.org/2000/svg">
  <rect width="32" height="32" rx="8" fill="#2563EB"/>
  <path d="M16 6C12.6863 6 10 8.68629 10 12C10 15.3137 12.6863 18 16 18C19.3137 18 22 15.3137 22 12C22 8.68629 19.3137 6 16 6Z" fill="white"/>
  <circle cx="14" cy="11" r="1.5" fill="#2563EB"/>
  <circle cx="18" cy="11" r="1.5" fill="#2563EB"/>
  <path d="M13 14C13 14 14.5 15.5 16 15.5C17.5 15.5 19 14 19 14" stroke="#2563EB" stroke-width="1.5" stroke-linecap="round"/>
  <path d="M8 20L10 22L14 18" stroke="white" stroke-width="2" stroke-linecap="round" stroke-linejoin="round"/>
  <path d="M18 20L20 22L24 18" stroke="white" stroke-width="2" stroke-linecap="round" stroke-linejoin="round"/>
  <circle cx="16" cy="25" r="2" fill="white"/>
</svg>